<?xml version="1.0" encoding="UTF-8"?>
<svg id="Layer_1" data-name="Layer 1" xmlns="http://www.w3.org/2000/svg" viewBox="0 0 69 69">
  <defs>
    <style>
      .cls-1 {
        fill: #dc143c;
        stroke-width: 0px;
      }
    </style>
  </defs>
  <path class="cls-1" d="M27.89,20.14c1.69-1.09,3.77-1.63,6.23-1.63,3.24,0,5.92.77,8.06,2.32,2.14,1.55,3.21,3.84,3.21,6.87,0,1.86-.46,3.43-1.39,4.7-.54.77-1.58,1.76-3.13,2.96l-1.52,1.18c-.83.64-1.38,1.4-1.65,2.25-.17.54-.26,1.39-.28,2.53h-5.82c.09-2.42.31-4.09.69-5.01.37-.92,1.33-1.99,2.87-3.19l1.56-1.22c.51-.39.93-.81,1.24-1.27.57-.79.86-1.65.86-2.6,0-1.09-.32-2.08-.95-2.97-.64-.89-1.8-1.34-3.48-1.34s-2.83.55-3.52,1.65c-.69,1.1-1.04,2.25-1.04,3.44h-6.21c.17-4.08,1.6-6.97,4.27-8.68ZM31.45,44.28h6.42v6.21h-6.42v-6.21Z"/>
  <path class="cls-1" d="M34.5,69C15.48,69,0,53.52,0,34.5S15.48,0,34.5,0s34.5,15.48,34.5,34.5-15.48,34.5-34.5,34.5ZM34.5,10.52c-13.22,0-23.98,10.76-23.98,23.98s10.76,23.98,23.98,23.98,23.98-10.76,23.98-23.98-10.76-23.98-23.98-23.98Z"/>
</svg>